<?xml version="1.0" encoding="UTF-8" standalone="no"?>
<svg
   xmlns:dc="http://purl.org/dc/elements/1.1/"
   xmlns:cc="http://creativecommons.org/ns#"
   xmlns:rdf="http://www.w3.org/1999/02/22-rdf-syntax-ns#"
   xmlns:svg="http://www.w3.org/2000/svg"
   xmlns="http://www.w3.org/2000/svg"
   xmlns:sodipodi="http://sodipodi.sourceforge.net/DTD/sodipodi-0.dtd"
   xmlns:inkscape="http://www.inkscape.org/namespaces/inkscape"
   version="1.1"
   id="svg62"
   width="495.72443"
   height="383.13531"
   viewBox="0 0 495.72443 383.13532"
   sodipodi:docname="base.image.svg"
   inkscape:version="1.0.1 (c497b03c, 2020-09-10)">
  <metadata
     id="metadata68">
    <rdf:RDF>
      <cc:Work
         rdf:about="">
        <dc:format>image/svg+xml</dc:format>
        <dc:type
           rdf:resource="http://purl.org/dc/dcmitype/StillImage" />
        <dc:title></dc:title>
      </cc:Work>
    </rdf:RDF>
  </metadata>
  <defs
     id="defs66" />
  <sodipodi:namedview
     pagecolor="#ffffff"
     bordercolor="#666666"
     borderopacity="1"
     objecttolerance="10"
     gridtolerance="10"
     guidetolerance="10"
     inkscape:pageopacity="0"
     inkscape:pageshadow="2"
     inkscape:window-width="1638"
     inkscape:window-height="988"
     id="namedview64"
     showgrid="false"
     fit-margin-top="0"
     fit-margin-left="0"
     fit-margin-right="0"
     fit-margin-bottom="0"
     inkscape:zoom="1.1025"
     inkscape:cx="241.21543"
     inkscape:cy="218.3356"
     inkscape:window-x="0"
     inkscape:window-y="23"
     inkscape:window-maximized="0"
     inkscape:current-layer="g70" />
  <g
     inkscape:groupmode="layer"
     inkscape:label="Image"
     id="g70"
     transform="translate(-92.117913,-114.99774)">
    <path
       style="fill:#000000;stroke-width:1.33333"
       d="m 524.4143,495.48798 c -5.50704,-2.11626 -8.26095,-4.30908 -12.66667,-10.08602 -8.14385,-10.67847 -9.12464,-12.9408 -10.50441,-24.22977 -1.57665,-12.89979 -6.18972,-32.96391 -8.77692,-38.17444 -3.75873,-7.56995 -9.06161,-11.54716 -26.9552,-20.21667 -17.07215,-8.27152 -18.53692,-9.30556 -30.27412,-21.37163 -7.7915,-8.00979 -12.91926,-14.47168 -13.92316,-17.54563 -1.77038,-5.42084 -8.60466,-18.31036 -11.5493,-21.78206 -1.0493,-1.23712 -1.5262,-2.8668 -1.05976,-3.62151 1.71684,-2.77792 -17.80014,-14.02697 -20.1901,-11.63703 -0.41686,0.41686 1.16828,1.82666 3.5225,3.1329 8.84748,4.90896 8.71992,5.01441 -6.90613,5.70829 -29.42319,1.30656 -55.80655,0.57469 -67.40787,-1.86985 -19.57607,-4.12495 -38.30473,-11.68734 -51.70635,-20.87835 -4.38784,-3.00925 -6.44207,-3.59653 -10.66667,-3.04948 -5.96336,0.77221 -29.29229,-6.99455 -44.90049,-14.94845 -4.95089,-2.52297 -9.60089,-4.58721 -10.33333,-4.58721 -2.57871,0 -1.38931,11.49457 1.81252,17.51635 2.1433,4.031 2.94158,7.29434 2.50762,10.25107 -0.61858,4.21472 -0.50797,4.32888 3.90628,4.0316 5.98164,-0.40285 7.20984,0.50735 11.13387,8.25103 4.62565,9.1283 4.42456,11.06897 -1.02536,9.89532 -7.32432,-1.57731 -11.99195,-4.59931 -20.79152,-13.46122 l -8.45817,-8.5181 -1.27256,-14.98303 c -1.84886,-21.76836 -2.24815,-22.89508 -8.29311,-23.40111 -3.49908,-0.29291 -6.66965,0.57865 -10.58955,2.91093 -7.75123,4.6119 -22.21859,16.39386 -34.65299,28.22075 -5.75537,5.4742 -11.17182,10.01686 -12.03654,10.09482 -0.86473,0.078 -2.77223,0.22794 -4.2389,0.33333 -1.96337,0.14107 -2.77411,1.29763 -3.07406,4.38531 -0.6109,6.28856 -4.17464,8.66621 -14.19487,9.47054 -5.698127,0.45739 -8.731067,0.21027 -8.731067,-0.71138 0,-2.8056 8.875717,-13.01038 13.486527,-15.50602 2.59438,-1.40424 5.61379,-4.11561 6.70979,-6.02528 1.096,-1.90966 7.67692,-7.50134 14.62426,-12.42596 6.94735,-4.92461 17.98181,-14.41009 24.52102,-21.07884 13.54919,-13.81761 15.07503,-14.85481 23.32507,-15.8556 5.94028,-0.7206 6.004,-0.78257 6.40179,-6.22636 0.33275,-4.55385 1.29287,-6.21463 5.58848,-9.66667 5.92641,-4.7626 10.26547,-5.25313 14.82992,-1.67652 1.74889,1.3704 8.27981,5.03531 14.51315,8.14426 6.23333,3.10894 13.33409,7.15696 15.77945,8.99558 2.44536,1.83863 4.90513,2.82372 5.46616,2.18908 1.67757,-1.8977 5.42105,-12.34621 5.42105,-15.13084 0,-5.75913 5.52823,-17.38868 9.1582,-19.26581 2.68924,-1.39065 4.24015,-3.86943 6.03631,-9.64769 6.45336,-20.76046 19.2257,-36.34353 39.38818,-48.05613 26.34033,-15.30138 29.11678,-17.69954 22.80921,-19.70149 -1.43445,-0.45528 -4.08341,-2.58108 -5.88656,-4.724 -3.86292,-4.59081 -12.44263,-8.15437 -20.83867,-8.65527 -9.50334,-0.56696 -16,-3.40261 -16,-6.98366 0,-1.66384 -0.72332,-4.18339 -1.60737,-5.59898 -1.31528,-2.1061 -1.12112,-3.49598 1.06844,-7.64857 l 2.6758,-5.07477 32.59824,0.1232 c 55.54028,0.20989 59.49528,0.46241 68.91678,4.40009 7.27009,3.03852 8.32041,3.92895 8.33333,7.06469 0.008,1.97339 0.65569,3.98408 1.43901,4.4682 0.78334,0.48414 1.06638,1.81282 0.62898,2.95264 -0.45856,1.19499 0.49084,3.4414 2.24244,5.30588 1.67073,1.77842 2.9041,3.47884 2.74084,3.77874 -0.61394,1.12761 1.54277,5.30061 3.54756,6.86417 1.81261,1.41367 1.69366,1.62976 -0.91738,1.66667 -1.75893,0.0248 -3,0.86977 -3,2.0424 0,3.10774 -1.60876,2.45954 -9.92737,-4 -7.08328,-5.5003 -10.07263,-7.08199 -10.07263,-5.32954 0,0.36878 4.52243,4.96635 10.04983,10.21684 6.19568,5.8853 9.57428,10.02191 8.80981,10.78638 -1.87322,1.87322 -6.0112,-0.87244 -11.02854,-7.31771 -4.49827,-5.77849 -6.44723,-7.63219 -8.06298,-7.66891 -1.84282,-0.0419 9.49735,15.42847 13.45314,18.35284 4.521,3.34222 5.3062,5.62675 1.93392,5.62675 -1.19798,0 -5.1312,-3 -8.7405,-6.66667 -3.60928,-3.66666 -7.2068,-6.66666 -7.99448,-6.66666 -2.14661,0 7.22115,10.93764 11.99059,14 2.28424,1.46666 4.17627,3.41666 4.20452,4.33333 0.10373,3.36789 -5.49873,1.52179 -11.12753,-3.66667 -3.1823,-2.93333 -6.53104,-5.33333 -7.44167,-5.33333 -2.02548,0 5.80672,9.24123 10.14955,11.97549 1.72572,1.08652 3.13768,2.43652 3.13768,3 0,2.25148 -6.00971,0.82511 -10.29506,-2.44348 -6.79574,-5.18336 -6.9693,-2.69748 -0.23664,3.38944 6.46806,5.84771 5.31692,6.88699 -2.95436,2.66731 -7.8395,-3.99943 -9.3371,-2.44193 -2.06798,2.15068 5.81804,3.67584 7.74276,5.92723 5.06718,5.92723 -0.63444,0 -2.58444,-1.11747 -4.33333,-2.48326 -3.85288,-3.00888 -9.17982,-4.82708 -9.17982,-3.13328 0,0.67642 2.70001,2.9365 6.00001,5.0224 3.3,2.08592 6,4.27293 6,4.86002 0,1.9806 -4.08275,1.08611 -7.88984,-1.72859 -2.08002,-1.53783 -4.88533,-2.58355 -6.23401,-2.32381 -1.82708,0.35186 -0.69881,1.59736 4.42614,4.88603 4.51471,2.89709 6.62643,5.07013 6.14535,6.32381 -0.94687,2.46751 -2.36494,2.41953 -4.4993,-0.15223 -2.83265,-3.41313 -9.37272,-7.62449 -10.33937,-6.65785 -0.49728,0.49729 2.08726,3.53969 5.74344,6.76089 7.47863,6.58892 6.41401,8.13119 -1.35242,1.9592 -7.99745,-6.35557 -10.45373,-4.98214 -3,1.67746 l 4.33334,3.87165 -5.07014,-2.92664 c -2.78857,-1.60965 -5.43857,-2.5582 -5.88889,-2.10789 -0.45031,0.45032 -0.56875,1.00717 -0.2632,1.23744 0.30556,0.23028 3.50843,2.33028 7.11748,4.66666 3.61965,2.34326 5.53846,4.24799 4.27935,4.24799 -1.25542,0 -3.99971,-1.26952 -6.09842,-2.82117 -2.0987,-1.55164 -4.5662,-2.57104 -5.4833,-2.26535 -0.93935,0.31312 0.86518,2.41837 4.13249,4.82117 6.50939,4.78706 5.95972,5.7303 -0.87701,1.50496 -2.45652,-1.51821 -5.0149,-2.42138 -5.68527,-2.00708 -0.67039,0.41432 -2.93133,-0.1398 -5.02432,-1.2314 -4.19193,-2.18628 -9.80544,-2.664 -9.80544,-0.83446 0,0.64166 1.65,1.51838 3.66667,1.94825 4.0934,0.87255 12.97344,6.02276 12.02309,6.97311 -0.33605,0.33604 -3.34935,-0.60032 -6.69621,-2.0808 -7.23671,-3.20114 -17.63678,-4.8692 -18.78411,-3.01278 -0.46693,0.75552 1.96472,1.63723 5.75251,2.08583 6.23824,0.73883 15.61217,4.45671 14.36961,5.69927 -0.3206,0.3206 -5.07172,-0.11494 -10.55805,-0.96788 -9.45163,-1.46942 -17.10703,-0.92626 -17.10668,1.21373 1.7e-4,1.03668 11.1137,1.86319 28.76781,2.13944 9.68029,0.15148 11.33015,-0.20379 16.33333,-3.51709 4.92643,-3.26246 5.56537,-3.40652 5.56537,-1.25484 0,1.3369 0.88092,3.59542 1.9576,5.01892 1.07666,1.42349 1.97666,3.73817 2,5.14373 0.0233,1.40555 0.43161,2.16633 0.90732,1.69063 0.4757,-0.47571 3.14402,1.07429 5.92958,3.44444 12.91794,10.99152 24.28927,16.76649 37.55759,19.07378 2.76032,0.48 5.46032,1.56152 6,2.40336 0.53968,0.84184 5.84021,2.51042 11.77897,3.70795 19.04686,3.84075 32.73221,12.46017 41.46941,26.1186 2.51173,3.92648 5.87916,7.6576 7.48316,8.29136 1.60401,0.63376 7.90526,3.08688 14.0028,5.45135 12.83385,4.97667 26.71177,11.97819 52.99442,26.73609 19.14725,10.75132 21.58686,11.65918 24.22953,9.01651 0.8307,-0.83071 2.4507,-1.14955 3.6,-0.70852 2.40042,0.92113 2.79621,6.31231 0.62296,8.48556 -1.06667,1.06667 0.004,2.93673 3.92358,6.85692 9.82343,9.82343 10.57012,21.44691 1.98798,30.94632 -7.9666,8.81807 -20.09607,10.26624 -27.61586,3.29714 -4.18887,-3.88211 -4.39615,-5.48723 -0.82904,-6.42005 2.97292,-0.77744 3.44515,-4.541 0.9576,-7.63188 -0.89334,-1.11001 -5.66632,-5.20536 -10.60661,-9.10076 -4.9403,-3.8954 -11.09031,-9.54521 -13.66671,-12.55516 -2.57639,-3.00993 -6.12764,-6.4194 -7.89168,-7.57658 -1.76403,-1.15719 -5.83701,-5.4905 -9.05107,-9.62956 -8.85152,-11.39902 -23.37077,-22.45306 -29.49161,-22.45306 -2.75089,0 -4.51163,28.07311 -3.61091,57.57214 0.0152,0.49801 3.34391,1.59392 7.39711,2.43536 8.41171,1.74626 10.53947,4.11352 11.97765,13.32584 0.63586,4.07303 2.02918,6.89137 4.33836,8.77545 3.6465,2.97522 5.36006,10.4714 5.55054,24.28167 0.0892,6.467 0.59905,7.59351 6.09733,13.47161 3.3,3.52796 6,7.70226 6,9.2762 0,2.44099 0.76991,2.86174 5.23656,2.86174 4.03163,0 5.85496,0.78617 7.92409,3.41664 3.05307,3.88134 6.17032,12.36349 4.98083,13.55298 -1.19849,1.1985 -11.43453,-2.12548 -17.71224,-5.75173 -7.04941,-4.07203 -7.61216,-4.03233 -6.36229,0.44877 0.56248,2.01667 1.37753,6.36667 1.81121,9.66667 0.6736,5.12563 1.27427,6.0672 4.12184,6.46109 1.83333,0.2536 4.18084,1.1536 5.21669,2 2.08364,1.70258 5.99056,10.18042 7.31455,15.87225 1.03103,4.43241 0.0441,4.51736 -9.5682,0.82356 z m -14.94659,-42.43286 c -0.71009,-2.47596 -2.22678,-12.57505 -3.37041,-22.44243 -1.14364,-9.86737 -2.9938,-19.70906 -4.11149,-21.87042 -1.40919,-2.72507 -4.56159,-5.06602 -10.28335,-7.63632 -4.53816,-2.03862 -10.22655,-5.3716 -12.64084,-7.40663 -4.51467,-3.80543 -7.38064,-3.77453 -4.21039,0.0453 2.90696,3.50267 12.23348,9.41474 17.62322,11.17134 6.63622,2.16285 8.22873,5.7143 10.2005,22.74836 2.06358,17.82696 5.34956,32.62674 6.8999,31.07641 0.68972,-0.68972 0.645,-3.06319 -0.1072,-5.68571 z m -13.34978,-58.1002 c 0,-3.14355 -3.70648,-11.29051 -5.13664,-11.29051 -0.69999,0 -0.2806,2.99411 0.93196,6.65356 2.14801,6.48252 4.20468,8.75064 4.20468,4.63695 z m 79.44779,-5.24289 c 4.45206,-2.91711 8.54106,-9.82863 8.54722,-14.44717 0.007,-5.30596 -2.94564,-10.3421 -9.57536,-16.33166 -3.16414,-2.85862 -5.76217,-5.51352 -5.7734,-5.8998 -0.0517,-1.77938 -2.32065,-4.03566 -4.05828,-4.03566 -3.89789,0 -1.72086,3.96495 5.61711,10.23024 6.66616,5.69168 11.12825,12.26502 11.12825,16.3936 0,2.986 -2.3773,1.15627 -3.08317,-2.37301 -0.84652,-4.23265 -5.57284,-10.69668 -6.87391,-9.4012 -0.4693,0.46729 0.3768,2.86729 1.88024,5.33333 2.65852,4.36066 3.57314,12.10366 1.93419,16.37466 -1.58083,4.11959 -2.51739,2.0151 -2.05751,-4.6233 0.38179,-5.51116 -0.16642,-7.69041 -3.01892,-12.00082 -1.91698,-2.89676 -4.0769,-5.26683 -4.79984,-5.26683 -1.9586,0 -1.64662,0.98592 2.01892,6.38025 3.79382,5.5831 4.3877,13.06636 1.35166,17.03158 -1.81739,2.37358 -1.86423,2.23573 -0.56499,-1.6627 1.71056,-5.13261 -0.7498,-11.29878 -6.83427,-17.12808 -5.80097,-5.55768 -6.44289,-2.89176 -0.80605,3.34755 5.20981,5.76664 6.57545,12.94259 3.02399,15.89003 -1.50196,1.24652 -1.80448,0.55846 -1.68911,-3.84164 0.12307,-4.69274 -0.6394,-6.14007 -6.12356,-11.62423 -3.44525,-3.44525 -6.69774,-5.83047 -7.22772,-5.30048 -0.53,0.53 1.50162,3.50105 4.51472,6.60235 6.01051,6.18645 6.74977,8.0448 5.12,12.87044 -2.24495,6.64709 9.05759,8.9158 17.34979,3.48255 z M 468.61087,353.99774 c 0.44219,-1.65 0.81218,-7.2681 0.82219,-12.48468 0.0107,-5.21657 0.60699,-12.58933 1.32661,-16.3839 1.3038,-6.87495 -0.34292,-20.13142 -2.50074,-20.13142 -0.53424,0 -0.94803,4.95 -0.91951,11 0.0285,6.05 -0.28127,17.75 -0.68841,26 -0.6928,14.03846 0.1048,18.92212 1.95986,12 z m 58.17372,-5.73288 c 0,-1.90976 -4.10241,-8.26617 -7.20665,-11.1662 -5.65888,-5.28665 -3.39319,1.94587 2.99663,9.56575 1.8803,2.24228 4.21002,3.12792 4.21002,1.60045 z M 148.55404,294.19775 c 8.9268,-8.14 17.87019,-15.65005 19.87423,-16.68902 10.98501,-5.69507 24.0721,-3.07138 44.42261,8.90584 12.37918,7.28573 28.01201,14.58317 31.24054,14.58317 0.74791,0 1.35983,-0.6 1.35983,-1.33333 0,-0.73333 -0.76693,-1.33333 -1.70428,-1.33333 -2.63452,0 -19.19829,-8.30754 -30.25907,-15.17641 -13.77317,-8.55328 -22.24705,-11.49026 -33.15209,-11.49026 -10.59568,0 -12.94162,1.30054 -32.46824,18 -6.85989,5.86667 -14.20136,11.92593 -16.31438,13.46505 -3.56988,2.60027 -3.89685,5.86828 -0.58713,5.86828 0.74659,0 8.66118,-6.66 17.58798,-14.79999 z m 48.27581,8.38618 c -0.34496,-2.70573 -0.98301,-7.76952 -1.41792,-11.25286 -0.43491,-3.48333 -1.44291,-6.33333 -2.24,-6.33333 -1.49821,0 -0.61144,20.1467 1.00165,22.75674 1.65459,2.67718 3.25868,-0.44524 2.65627,-5.17055 z m 74.6214,-1.61197 c 2.2,-1.447 5.35,-2.63316 7,-2.6359 1.65,-0.003 3,-0.60498 3,-1.33832 0,-3.63539 -15.98817,1.16604 -20.00689,6.00831 -2.56214,3.08717 -0.1833,5.14105 3.13394,2.70585 1.58012,-1.15996 4.67295,-3.29294 6.87295,-4.73994 z m -17.40341,-14.27238 c 1.45725,-3.79756 -8.66479,-9.70184 -16.63246,-9.70184 -5.01165,0 -4.18924,2.02164 1.2663,3.11275 2.1739,0.43478 5.9364,2.59469 8.36106,4.7998 5.1556,4.68872 5.8267,4.86013 7.0051,1.78929 z m -33.92992,-14.80984 c 0,-1.91951 -19.62071,-20.22533 -21.67808,-20.22533 -3.89475,0 -9.15792,5.45792 -8.7289,9.05186 0.61615,5.16138 3.48832,5.18234 3.98312,0.0291 0.71559,-7.45263 4.72712,-6.52291 15.16856,3.51548 8.66976,8.33508 11.2553,10.08757 11.2553,7.62892 z m -19.45312,-7.02437 c -1.26144,-1.39386 -2.80052,-2.5343 -3.4202,-2.5343 -2.04783,0 -1.16983,3.84335 1.17817,5.15736 3.44388,1.92728 4.86032,0.27012 2.24203,-2.62306 z m 80.56017,-38.4839 c 14.72123,-3.27909 16.22628,-3.86676 16.22628,-6.3357 0,-1.38732 -0.7148,-1.70131 -2.33333,-1.02495 -3.82581,1.59872 -20.75059,6.00411 -21.22896,5.52573 -0.95572,-0.9557 3.48731,-13.18656 6.91471,-19.03498 8.48765,-14.48309 20.26193,-23.76435 48.24288,-38.02823 10.12258,-5.16022 19.6047,-10.5891 21.07137,-12.06419 l 2.66667,-2.68197 -4.66667,1.13028 c -2.56667,0.62165 -8.73773,1.06708 -13.71348,0.98984 -10.31413,-0.1601 -11.90684,2.37437 -2.18299,3.47377 l 5.89647,0.66667 -14.31019,7.09093 c -29.10902,14.42401 -44.55425,29.50255 -51.80388,50.57395 -2.92844,8.51164 -4.10158,9.61921 -10.21927,9.64804 -2.38333,0.0107 -4.33333,0.62041 -4.33333,1.35375 0,2.14117 11.08767,1.54284 23.77372,-1.28294 z m 112.76035,-79.83584 c 0.66719,-1.07953 -16.6874,-10.88123 -19.26596,-10.88123 -2.60725,0 -1.14401,2.77986 2.11556,4.01914 1.86103,0.70756 5.60031,2.7927 8.30952,4.63366 5.13108,3.48667 7.66803,4.12612 8.84088,2.22843 z m -81.28749,-6.08553 c -1.12968,-4.50102 2.23885,-5.98327 11.65674,-5.12928 5.01942,0.45514 7.76335,0.20474 7.76335,-0.70844 0,-1.93976 -17.23063,-3.67332 -19.89867,-2.00198 -3.50056,2.19287 -3.59496,11.044 -0.11773,11.044 0.81312,0 1.06325,-1.34401 0.59635,-3.2043 z m -17.1586,-4.93804 c 0.63841,-1.03296 1.24029,-0.94455 2.0062,0.29472 0.60178,0.97372 1.55557,1.309 2.1195,0.74506 1.52706,-1.52705 -1.46261,-5.52508 -4.35804,-5.82792 -1.38726,-0.1451 -4.88918,-0.85828 -7.78204,-1.58484 -5.74356,-1.44252 -7.40693,-1.0097 -7.40693,1.92735 0,1.08957 1.29869,1.94176 3,1.96856 1.65,0.026 4.5,0.90472 6.33333,1.95275 4.08455,2.33493 4.92426,2.40725 6.08798,0.52432 z m 90.91951,-4.85766 c 0.39581,-1.20364 -1.58184,-1.66666 -7.11859,-1.66666 -8.95196,0 -8.97415,-1.35355 -0.0305,-1.85843 10.04954,-0.56731 10.01057,-3.23927 -0.0975,-6.68344 -6.88937,-2.34745 -15.09423,-2.82208 -15.09423,-0.87316 0,0.6884 2.85,1.69408 6.33334,2.23487 l 6.33333,0.98322 -5.57393,1.4318 c -6.44076,1.65447 -8.84812,3.4318 -4.6483,3.4318 1.5889,0 2.8889,0.61934 2.8889,1.3763 0,3.61529 15.85481,5.12896 17.00748,1.6237 z m -38.34082,-2.39954 c 0,-0.40308 -0.91541,-2.50308 -2.03424,-4.66667 -2.15017,-4.15796 -4.4688,-4.82876 -8.75743,-2.53356 -2.98638,1.59827 -2.00709,4.52492 1.11342,3.32747 1.21617,-0.46668 2.82134,0.31094 3.94073,1.9091 1.69639,2.42192 5.73752,3.80499 5.73752,1.96366 z m 5.58755,-4.62182 c -2.6552,-4.66652 -4.83051,-5.27229 -3.51422,-0.97864 1.21424,3.96075 3.29543,6.46882 4.6653,5.62219 0.60673,-0.37497 0.0888,-2.46457 -1.15108,-4.64355 z m -34.9281,-0.16814 c 0.0107,-1.24456 -25.87896,-2.90458 -29.14293,-1.86864 -2.19625,0.69706 -2.93604,0.179 -3.61665,-2.53278 -0.99963,-3.98284 -3.2332,-4.57248 -3.2332,-0.85352 0,1.40555 -0.70623,2.79096 -1.5694,3.07868 -0.86318,0.28774 -1.17748,1.15728 -0.69847,1.93234 0.9424,1.52485 38.24788,1.76268 38.26065,0.24392 z m 31.45268,102.00092 c -0.73117,-1.90539 -0.53396,-1.95421 1.52402,-0.37729 1.30012,0.99621 2.61385,1.98108 2.91941,2.18858 0.30555,0.20751 -0.38025,0.3773 -1.52401,0.3773 -1.14378,0 -2.45751,-0.98487 -2.91942,-2.18859 z"
       id="path74" />
  </g>
</svg>
